# xmcd
#
# Track frame offsets:
# 150
# 16135
# 39795
# 66835
# 85072
# 101515
# 117212
# 134305
# 153667
# 172857
# 192115
# 209642
# 224460
#
# Disc length: 3153 seconds
#
# Revision: 1
# Processed by: cddbd v1.4PL0 Copyright (c) Steve Scherf et al.
# Submitted via: CedeCatalogueitor 2.5 http://usuarios.lycos.es/kakasboy
#
DISCID=aa0c4f0d
DTITLE=GUITARRAS MESTIZAS - GUITARRAS MESTIZAS CD 1
DYEAR=1999
DGENRE=
TTITLE0=SAMBA PA TI
TTITLE1=CORAZON PARTIO
TTITLE2=YOU`VE GOT A FRIEND
TTITLE3=SLEEP WALK
TTITLE4=NOW AND FOREVER
TTITLE5=MY WAY
TTITLE6=THE HONEY MOON-LUNA DE MIEL
TTITLE7=EYES OF BLUE
TTITLE8=MAMY BLUE
TTITLE9=TEA AT THE SAHARA
TTITLE10=MOONFLOWER- FLOR DE LUNA
TTITLE11=LA QUIERO A MORIR
TTITLE12=YESTERDAY
EXTD=
EXTT0=
EXTT1=
EXTT2=
EXTT3=
EXTT4=
EXTT5=
EXTT6=
EXTT7=
EXTT8=
EXTT9=
EXTT10=
EXTT11=
EXTT12=
PLAYORDER=
